<svg xmlns="http://www.w3.org/2000/svg" viewBox="212 212 576 576" fill="none" role="img" aria-label="Get Some Proof mascot, starstruck">
<path d="M224 552C224 318 348 228 500 228C652 228 776 318 776 552C776 644 740 712 700 742C662 770 618 718 576 746C540 772 460 772 424 746C382 718 338 770 300 742C260 712 224 644 224 552Z" fill="black"/>
<g filter="url(#blob-shade-starstruck)"><path d="M224 552C224 318 348 228 500 228C652 228 776 318 776 552C776 644 740 712 700 742C662 770 618 718 576 746C540 772 460 772 424 746C382 718 338 770 300 742C260 712 224 644 224 552Z" fill="url(#blob-fill-starstruck)"/></g>
<path d="M401.2 437.8Q408.0 426.0 414.8 437.8L425.9 456.7Q430.0 463.7 438.0 465.5L459.4 470.1Q472.7 473.0 463.6 483.1L449.0 499.5Q443.6 505.6 444.4 513.7L446.6 535.5Q448.0 549.0 435.5 543.5L415.5 534.7Q408.0 531.4 400.5 534.7L380.5 543.5Q368.0 549.0 369.4 535.5L371.6 513.7Q372.4 505.6 367.0 499.5L352.4 483.1Q343.3 473.0 356.6 470.1L378.0 465.5Q386.0 463.7 390.1 456.7ZM585.2 437.8Q592.0 426.0 598.8 437.8L609.9 456.7Q614.0 463.7 622.0 465.5L643.4 470.1Q656.7 473.0 647.6 483.1L633.0 499.5Q627.6 505.6 628.4 513.7L630.6 535.5Q632.0 549.0 619.5 543.5L599.5 534.7Q592.0 531.4 584.5 534.7L564.5 543.5Q552.0 549.0 553.4 535.5L555.6 513.7Q556.4 505.6 551.0 499.5L536.4 483.1Q527.3 473.0 540.6 470.1L562.0 465.5Q570.0 463.7 574.1 456.7Z" fill="#2E2A25"/>
<defs>
<filter id="blob-shade-starstruck" x="217" y="212.5" width="574.5" height="563" filterUnits="userSpaceOnUse" color-interpolation-filters="sRGB">
<feFlood flood-opacity="0" result="BackgroundImageFix"/>
<feBlend mode="normal" in="SourceGraphic" in2="BackgroundImageFix" result="shape"/>
<feColorMatrix in="SourceAlpha" type="matrix" values="0 0 0 0 0 0 0 0 0 0 0 0 0 0 0 0 0 0 127 0" result="hardAlpha"/>
<feOffset dx="-7" dy="15"/>
<feGaussianBlur stdDeviation="5"/>
<feComposite in2="hardAlpha" operator="arithmetic" k2="-1" k3="1"/>
<feColorMatrix type="matrix" values="0 0 0 0 1 0 0 0 0 1 0 0 0 0 1 0 0 0 0.36 0"/>
<feBlend mode="normal" in2="shape" result="effect1"/>
<feColorMatrix in="SourceAlpha" type="matrix" values="0 0 0 0 0 0 0 0 0 0 0 0 0 0 0 0 0 0 127 0" result="hardAlpha"/>
<feOffset dx="22" dy="-42"/>
<feGaussianBlur stdDeviation="7.75"/>
<feComposite in2="hardAlpha" operator="arithmetic" k2="-1" k3="1"/>
<feColorMatrix type="matrix" values="0 0 0 0 0.952017 0 0 0 0 0.658791 0 0 0 0 0.0595905 0 0 0 1 0"/>
<feBlend mode="normal" in2="effect1" result="effect2"/>
</filter>
<linearGradient id="blob-fill-starstruck" x1="0" y1="194" x2="0" y2="817" gradientUnits="userSpaceOnUse">
<stop stop-color="#FFD24A"/>
<stop offset="1" stop-color="#F2A100"/>
</linearGradient>
</defs>
</svg>
