<svg xmlns="http://www.w3.org/2000/svg" xmlns:xlink="http://www.w3.org/1999/xlink" width="652" height="704" viewBox="186 196 652 704" role="img" aria-label="Get Some Proof, blob mascot">
<defs>


<linearGradient id="body" gradientUnits="userSpaceOnUse" x1="0" y1="236" x2="0" y2="780"><stop offset="0" stop-color="#FFD24A"/><stop offset="1" stop-color="#F2A100"/></linearGradient>
</defs>
<g>


<g ><path d="M236 556C236 322 360 232 512 232C664 232 788 322 788 556C788 648 752 716 712 746C674 774 630 722 588 750C552 776 472 776 436 750C394 722 350 774 312 746C272 716 236 648 236 556Z" fill="url(#body)"/></g>
<path d="M434 435H434A27 27 0 0 1 461 462V534A27 27 0 0 1 434 561H434A27 27 0 0 1 407 534V462A27 27 0 0 1 434 435ZM590 435H590A27 27 0 0 1 617 462V534A27 27 0 0 1 590 561H590A27 27 0 0 1 563 534V462A27 27 0 0 1 590 435Z" fill="#2E2A25"/>
</g>
</svg>
